<?xml version="1.0" encoding="utf-8"?>
<!-- Generator: Adobe Illustrator 25.2.1, SVG Export Plug-In . SVG Version: 6.00 Build 0)  -->
<svg version="1.1" id="Capa_1" xmlns="http://www.w3.org/2000/svg" xmlns:xlink="http://www.w3.org/1999/xlink" x="0px" y="0px"
	 viewBox="0 0 150 150" style="enable-background:new 0 0 150 150;" xml:space="preserve">
<g>
	<g>
		<path d="M53.1,45.6c-10.4,0-20.8-0.7-30.5,0c-5.2,0-6.7-0.7-7.4-5.9c0-1.5,0-3.7,0-5.9c0.7-2.2,2.2-3,4.5-3c5.9,0,11.9,0,17.1,0
			c17.1,0,34.2-0.7,51.3,0c9.7,0,18.6,0,28.3,0.7c4.5,0,8.2,0,12.6-0.7c3.7,0,5.2,1.5,5.2,4.5c0,2.2,0,4.5-0.7,5.9
			c0,3.7-0.7,4.5-4.5,4.5c-5.9,0-11.2,0-17.1,0c-7.4,0-18.6-0.7-21.6-0.7C91,44.8,65.8,45.6,53.1,45.6z"/>
	</g>
	<g>
		<path d="M96.2,67.9c10.4,0,20.8,0,31.2,0c5.2,0,6.7,0.7,6.7,5.9c0,2.2,0,3.7,0,5.9c0,2.2-1.5,3-4.5,3c-5.9,0-11.9,0-17.1,0
			c-17.1,0-34.2,0.7-51.3,0c-9.7,0-18.6,0-28.3-0.7c-4.5,0-8.2,0-12.6,0.7c-3.7,0-5.2-1.5-5.2-4.5c0-2.2,0-4.5,0.7-5.9
			c0-3.7,0.7-4.5,4.5-4.5c5.9,0,11.2,0,17.1,0c7.4,0,18.6,0.7,21.6,0.7C58.3,68.6,83.6,67.9,96.2,67.9z"/>
	</g>
	<g>
		<path d="M91,105.8c2.2,0,14.1,0,21.6-0.7c5.9,0,11.2,0,17.1,0c3,0,3.7,0.7,4.5,3.7c0,2.2,0.7,4.5,0.7,5.9c0,3-1.5,4.5-5.2,4.5
			c-4.5,0-8.2-0.7-12.6-0.7c-9.7,0-18.6,0-28.3,0.7c-17.1,0-34.2,0-51.3,0c-5.9,0-11.9,0.7-17.1,0c-2.2,0-3.7-0.7-4.5-3
			c0-2.2,0-3.7,0-5.9c0-4.5,1.5-5.2,6.7-5.2c10.4,0.7,20.8,0,31.2,0C65.8,105.1,91,105.8,91,105.8z"/>
	</g>
</g>
</svg>
