<?xml version="1.0" encoding="utf-8"?>
<!-- Generator: Adobe Illustrator 25.2.1, SVG Export Plug-In . SVG Version: 6.00 Build 0)  -->
<svg version="1.1" id="Capa_1" xmlns="http://www.w3.org/2000/svg" xmlns:xlink="http://www.w3.org/1999/xlink" x="0px" y="0px"
	 viewBox="0 0 24 24" style="enable-background:new 0 0 24 24;" xml:space="preserve">
<path d="M15.5,7.1l-2.8,2.8c-0.4,0.4-1,0.4-1.4,0L8.4,7.1C8,6.7,7.4,6.7,7,7.1l0,0c-0.4,0.4-0.4,1,0,1.4l2.8,2.8
	c0.4,0.4,0.4,1,0,1.4L7,15.5c-0.4,0.4-0.4,1,0,1.4l0,0c0.4,0.4,1,0.4,1.4,0l2.8-2.8c0.4-0.4,1-0.4,1.4,0l2.8,2.8
	c0.4,0.4,1,0.4,1.4,0l0,0c0.4-0.4,0.4-1,0-1.4l-2.8-2.8c-0.4-0.4-0.4-1,0-1.4l2.8-2.8c0.4-0.4,0.4-1,0-1.4l0,0
	C16.5,6.7,15.9,6.7,15.5,7.1z"/>
</svg>
