<?xml version="1.0" encoding="utf-8"?>
<!-- Generator: Adobe Illustrator 25.2.1, SVG Export Plug-In . SVG Version: 6.00 Build 0)  -->
<svg version="1.1" id="Capa_1" xmlns="http://www.w3.org/2000/svg" xmlns:xlink="http://www.w3.org/1999/xlink" x="0px" y="0px"
	 viewBox="0 0 24 24" style="enable-background:new 0 0 24 24;" xml:space="preserve">
<g>
	<path d="M15.6,15.2c-0.1,0.4-0.2,0.8-0.3,1.2c-0.5,2.3-1,4.5-1.5,6.8c-0.2,0.7-0.2,0.8-1,0.8c-0.5,0-1-0.1-1.5-0.1
		c-0.5,0-0.7-0.3-0.8-0.7c-0.4-1.6-0.8-3.3-1.2-4.9c-0.2-0.8-0.4-1.6-0.6-2.5c0-0.2-0.1-0.5-0.2-0.5c-0.1,0-0.1,0.3-0.1,0.5
		c-0.1,2.3,0,4.6,0.2,6.9c0,0.9-0.2,1.2-1,1.3c-0.6,0.1-1.1,0-1.7-0.1c-0.4,0-0.4-0.3-0.4-0.7c-0.2-1.9,0-3.8,0-5.7
		c0-2.8,0-5.7,0-8.5c0-1.9-0.2-3.9-0.1-5.8c0-0.6-0.1-1.3-0.1-1.9c0-0.7,0.2-0.9,0.9-0.9c0.5,0,1,0,1.5,0c0.5,0,0.7,0.2,0.8,0.7
		c0.3,1.3,0.6,2.5,0.9,3.7c0.9,3.7,1.7,7.4,2.6,11c0,0,0,0,0,0c0.1,0.2,0.1,0.5,0.2,0.5c0.1,0,0.2-0.4,0.3-0.6
		c0.4-1.8,0.7-3.6,1.1-5.3c0.7-3.3,1.3-6.5,2-9.8c0.1-0.4,0.3-0.6,0.6-0.6c0.5,0,1-0.1,1.6,0c0.6,0,0.9,0.4,0.9,1
		c-0.1,2-0.3,4-0.2,6c0.1,2.3-0.1,4.6,0.1,6.9c0.1,0.8,0,1.6,0,2.3c0,2.1,0,4.3,0,6.4c0,0.8-0.2,1-1,1.1c-0.4,0-0.9,0.1-1.3,0
		c-0.4,0-0.6-0.3-0.7-0.7c-0.1-0.7,0-1.4,0-2.1c0-1.9,0-3.9,0-5.7C15.8,15.1,15.7,15.1,15.6,15.2z"/>
</g>
</svg>
